<?xml version="1.0" encoding="UTF-8"?><svg version="1.1" width="16px" height="16px" viewBox="0 0 16.0 16.0" xmlns="http://www.w3.org/2000/svg" xmlns:xlink="http://www.w3.org/1999/xlink"><defs><clipPath id="i0"><path d="M390,0 L390,844 L0,844 L0,0 L390,0 Z"></path></clipPath><clipPath id="i1"><path d="M8,0 C12.418278,0 16,3.581722 16,8 C16,12.418278 12.418278,16 8,16 C3.581722,16 0,12.418278 0,8 C0,3.581722 3.581722,0 8,0 Z"></path></clipPath></defs><g transform="translate(-42.0 -70.0)"><g clip-path="url(#i0)"><g transform="translate(42.0 70.0)"><g clip-path="url(#i1)"><polygon points="0,0 16,0 16,16 0,16 0,0" stroke="none" fill="#4334FF"></polygon></g><g transform="translate(11.333333333333485 4.666666666666515) scale(-1.0 1.0)"><path d="M2,0 L0,2 L6,2" stroke="#FFFFFF" stroke-width="1.4" fill="none" stroke-linecap="round" stroke-linejoin="round"></path></g><g transform="translate(4.666666666666515 11.333333333333485) scale(1.0 -1.0)"><path d="M2,0 L0,2 L6,2" stroke="#FFFFFF" stroke-width="1.4" fill="none" stroke-linecap="round" stroke-linejoin="round"></path></g></g></g></g></svg>