<?xml version="1.0" encoding="UTF-8"?><svg version="1.1" width="36px" height="20px" viewBox="0 0 36.0 20.0" xmlns="http://www.w3.org/2000/svg" xmlns:xlink="http://www.w3.org/1999/xlink"><defs><clipPath id="i0"><path d="M390,0 L390,844 L0,844 L0,0 L390,0 Z"></path></clipPath><clipPath id="i1"><path d="M8.41400075,0 C10.870907,0 12.7790741,0.554442218 14.1385021,1.66332665 C15.49793,2.77221109 16.2905533,4.42663104 16.5163718,6.62658651 L11.9367708,6.62658651 C11.7741814,5.53996883 11.4219044,4.76508573 10.8799398,4.30193721 C10.3379752,3.83878869 9.57019195,3.60721443 8.57659014,3.60721443 C7.38426797,3.60721443 6.46292811,4.10598976 5.81257057,5.10354041 C5.16221302,6.10109107 4.83251788,7.52616344 4.82348513,9.37875752 L4.82348513,10.5544422 C4.82348513,12.4961033 5.15995484,13.9545758 5.83289424,14.9298597 C6.50583365,15.9051436 7.56492285,16.3927856 9.01016184,16.3927856 C10.2476477,16.3927856 11.1689876,16.1211312 11.7741814,15.5778223 L11.7741814,12.5584502 L8.46819721,12.5584502 L8.46819721,9.33867735 L16.529921,9.33867735 L16.529921,17.3279893 C15.7982687,18.1295925 14.7278886,18.7753284 13.3187806,19.2651971 C11.9096726,19.7550657 10.3650734,20 8.68498306,20 C6.10161837,20 4.03763643,19.2206635 2.49303726,17.6619906 C0.948438088,16.1033177 0.12194204,13.9345357 0.0135491155,11.1556446 L2.84217094e-14,9.47227789 C2.84217094e-14,7.5573369 0.34324426,5.88510354 1.02973278,4.45557782 C1.7162213,3.0260521 2.69853218,1.92607437 3.97666541,1.15564462 C5.25479865,0.385214874 6.73391043,0 8.41400075,0 Z M27.3692134,0.0133600534 C29.040271,0.0133600534 30.5306737,0.405254954 31.8404215,1.18904476 C33.1501694,1.97283456 34.1686112,3.08839902 34.8957471,4.53573814 C35.622883,5.98307727 35.9909673,7.64195057 36,9.51235805 L36,10.4074816 C36,12.3046092 35.6432066,13.9835226 34.9296199,15.4442218 C34.2160331,16.904921 33.2021076,18.0293921 31.8878434,18.8176353 C30.5735792,19.6058784 29.076402,20 27.3963116,20 C25.7162213,20 24.2258186,19.6192385 22.9251035,18.8577154 C21.6243884,18.0961924 20.6104629,17.007348 19.8833271,15.5911824 C19.1561912,14.1750167 18.7745578,12.5495435 18.7384268,10.7147629 L18.7384268,9.61923848 C18.7384268,7.71320419 19.092962,6.03206413 19.8020324,4.5758183 C20.5111027,3.11957248 21.5272864,1.99510131 22.8505834,1.20240481 C24.1738803,0.409708305 25.6800903,0.0133600534 27.3692134,0.0133600534 Z M27.3692134,3.68737475 C24.9845691,3.68737475 23.7245013,5.4509018 23.5890102,8.97795591 L23.575461,10.4074816 C23.575461,12.3135159 23.8961234,13.7786684 24.5374482,14.8029392 C25.1787731,15.82721 26.1317275,16.3393454 27.3963116,16.3393454 C28.5976665,16.3393454 29.5235228,15.8361167 30.1738803,14.8296593 C30.8242379,13.823202 31.153933,12.3758628 31.1629658,10.487642 L31.1629658,9.59251837 C31.1629658,7.65976397 30.8355288,6.19238477 30.1806549,5.19038076 C29.525781,4.18837675 28.5886338,3.68737475 27.3692134,3.68737475 Z"></path></clipPath><linearGradient id="i2" x1="18px" y1="0px" x2="18px" y2="20px" gradientUnits="userSpaceOnUse"><stop stop-color="#FFE6AB" offset="0%"></stop><stop stop-color="#FFFFFF" offset="100%"></stop></linearGradient></defs><g transform="translate(-177.0 -261.0)"><g clip-path="url(#i0)"><g transform="translate(20.0 108.0)"><g transform="translate(157.0 153.0)"><g clip-path="url(#i1)"><polygon points="2.84217094e-14,0 36,0 36,20 2.84217094e-14,20 2.84217094e-14,0" stroke="none" fill="url(#i2)"></polygon></g></g></g></g></g></svg>