<?xml version="1.0" encoding="UTF-8"?><svg version="1.1" width="20px" height="24px" viewBox="0 0 20.0 24.0" xmlns="http://www.w3.org/2000/svg" xmlns:xlink="http://www.w3.org/1999/xlink"><defs><clipPath id="i0"><path d="M10,14.4 C15.2108912,14.4 20,16.6622838 20,19.84 C20,22.5586508 15.8134818,24 10,24 C4.18651823,24 0,22.5586508 0,19.84 C0,16.4525827 4.55546546,14.4 10,14.4 Z M10,0 C13.2068387,0 15.8064516,2.5788416 15.8064516,5.76 C15.8064516,8.9411584 13.2068387,11.52 10,11.52 C6.7931871,11.52 4.19354839,8.9411584 4.19354839,5.76 C4.19354839,2.5788416 6.7931871,0 10,0 Z"></path></clipPath></defs><g transform="translate(-2.0 0.0)"><g transform="translate(2.0 0.0)"><g clip-path="url(#i0)"><polygon points="0,0 20,0 20,24 0,24 0,0" stroke="none" fill="#00D8BE"></polygon></g></g></g></svg>