<?xml version="1.0" encoding="UTF-8"?><svg version="1.1" width="20px" height="19px" viewBox="0 0 20.0 19.0" xmlns="http://www.w3.org/2000/svg" xmlns:xlink="http://www.w3.org/1999/xlink"><defs><clipPath id="i0"><path d="M13.8499336,0 C14.4809306,0 15.1109276,0.0898417162 15.7099247,0.29171237 C19.400807,1.49690026 20.7308006,5.56440311 19.619806,9.11971692 C18.989809,10.9365528 17.9598139,12.5946039 16.6108204,13.9494472 C14.6799296,15.8275473 12.5609398,17.4947378 10.2799507,18.930932 C10.1942276,18.9829593 10.0962943,19.0055676 9.99995207,18.9988443 L9.90368652,18.9957872 C9.83977354,18.9872266 9.77719802,18.9656169 9.72004927,18.930932 C7.43906021,17.4947378 5.32007036,15.8275473 3.38917962,13.9494472 C2.04018609,12.5946039 1.01019102,10.9365528 0.380194043,9.11971692 C-0.730800632,5.56440311 0.599192993,1.49690026 4.2900753,0.29171237 C4.88907243,0.0898417162 5.51906941,0 6.15006639,0 C7.54005972,-0.00957706997 8.88905326,0.452405428 10.0000479,1.30507292 C11.1109467,0.452405428 12.4599403,-0.00957706997 13.8499336,0 Z"></path></clipPath></defs><g transform="translate(-2.0 -3.0)"><g transform="translate(2.0 3.0)"><g clip-path="url(#i0)"><polygon points="5.55111512e-17,-0.000145962872 20,-0.000145962872 20,19 5.55111512e-17,19 5.55111512e-17,-0.000145962872" stroke="none" fill="#00D8BE"></polygon></g></g></g></svg>