<?xml version="1.0" encoding="UTF-8"?><svg version="1.1" width="24px" height="14px" viewBox="0 0 24.0 14.0" xmlns="http://www.w3.org/2000/svg" xmlns:xlink="http://www.w3.org/1999/xlink"><defs><clipPath id="i0"><path d="M20.3997835,0 C20.4659212,0 20.5219249,0.00829629833 20.5677946,0.024888895 C20.6136643,0.0414814916 20.651,0.0700000091 20.6798019,0.110444448 C20.7086038,0.150888886 20.7315387,0.183037033 20.7486065,0.206888889 C20.7656743,0.230740745 20.7779417,0.277407411 20.7854089,0.346888886 C20.7928761,0.416370361 20.797143,0.463037027 20.7982097,0.486888883 L20.7982097,7.77777777 L23.1983676,7.77777777 C23.4149152,7.77777777 23.6026609,7.85451851 23.7616047,8.00799999 C23.9205485,8.16148147 23.999487,8.344 23.9984503,8.55555555 C24.0000203,8.7494815 23.9376162,8.91540742 23.812808,9.05333335 L19.8125448,13.72 C19.6461339,13.9066667 19.4418538,14 19.1997045,14 C18.9575553,14 18.7532752,13.9066667 18.5868642,13.72 L14.5866011,9.05333335 C14.4617928,8.91540742 14.3993887,8.7494815 14.3993887,8.55555557 C14.3993887,8.34503706 14.4783273,8.16251854 14.6362043,8.00800001 C14.7940814,7.85348149 14.9818271,7.77674075 15.1994414,7.77777779 L17.5995993,7.77777779 L17.5995993,3.11111113 L11.3991256,3.11111113 C11.2657835,3.11111113 11.1617767,3.06237038 11.0871051,2.9648889 L9.08697352,0.631555556 C9.02830299,0.558962963 8.99896773,0.478074072 8.99896773,0.388888883 C8.99896773,0.283111111 9.03843699,0.191851851 9.11737551,0.115111102 C9.19631403,0.0383703532 9.29018687,0 9.39899404,0 L20.3997835,0 Z M4.80035721,0.0124444688 C5.05104036,0.0124444688 5.25532046,0.101629651 5.41319752,0.280000015 L9.41346068,4.94666667 C9.53826888,5.0845926 9.60067299,5.25051852 9.60067299,5.44444445 C9.60067299,5.65496297 9.52173446,5.83748149 9.36385741,5.99200001 C9.20598035,6.14651853 9.01823466,6.22325927 8.80062035,6.22222223 L6.40046245,6.22222223 L6.40046245,10.8888889 L12.6009361,10.8888889 C12.7342782,10.8888889 12.8382851,10.9334815 12.9129566,11.0226667 L14.9130882,13.356 C14.9717587,13.4451852 15.001094,13.5302222 15.001094,13.6111111 C14.999494,13.7168889 14.9600247,13.8081481 14.8810862,13.8848889 C14.8021477,13.9616296 14.7082748,14 14.5994677,14 L3.59867819,14 C3.53254051,14 3.47653683,13.9917037 3.43066714,13.9751111 C3.38479745,13.9585185 3.34746166,13.93 3.31865977,13.8895556 C3.28985788,13.8491111 3.26692304,13.816963 3.24985524,13.7931111 C3.23278745,13.7692593 3.22051997,13.7225926 3.21305282,13.6531111 C3.20558566,13.5836296 3.20131871,13.536963 3.20025197,13.5131111 L3.20025197,6.22222223 L0.80009407,6.22222223 C0.583546491,6.22222223 0.395800804,6.14548149 0.236857011,5.99200001 C0.0779132172,5.83851853 -0.00102531013,5.656 1.0053056e-05,5.44444445 C1.0053056e-05,5.25051852 0.062445532,5.0845926 0.187253738,4.94666667 L4.1875169,0.280000015 C4.34539395,0.101629651 4.54967406,0.0124444688 4.80035721,0.0124444688 Z"></path></clipPath></defs><g transform="translate(0.0 -5.0)"><g transform="translate(-2.0304870353982096e-05 5.0)"><g clip-path="url(#i0)"><polygon points="-8.50985948e-14,0 23.9984792,0 23.9984792,14 -8.50985948e-14,14 -8.50985948e-14,0" stroke="none" fill="#00D8BE"></polygon></g></g></g></svg>