<?xml version="1.0" encoding="UTF-8"?><svg version="1.1" width="22px" height="20px" viewBox="0 0 22.0 20.0" xmlns="http://www.w3.org/2000/svg" xmlns:xlink="http://www.w3.org/1999/xlink"><defs><clipPath id="i0"><path d="M12.375003,1.07209251 C12.375003,0.149415185 13.4183275,-0.332771663 14.0803042,0.261200748 L21.6429779,7.04623621 C22.1193296,7.47369099 22.118685,8.24114531 21.6429779,8.66801973 L14.0803042,15.4537248 C13.4191439,16.046983 12.375003,15.566939 12.375003,14.6428331 L12.375003,10.7180616 C5.71127873,10.8176597 2.83877413,12.5363181 4.7871496,19.0101039 C5.00345434,19.7287637 4.1673682,20.2851915 3.58071571,19.8418439 C1.70074651,18.4211762 0,15.7038584 0,12.9609603 C0,6.16516597 5.47297398,4.72798042 12.375003,4.64588231 Z"></path></clipPath></defs><g transform="translate(-1.0 -2.0)"><g transform="translate(1.0 2.0)"><g clip-path="url(#i0)"><polygon points="0,-1.66533454e-16 22,-1.66533454e-16 22,20 0,20 0,-1.66533454e-16" stroke="none" fill="#00D8BE"></polygon></g></g></g></svg>