<?xml version="1.0" encoding="UTF-8"?><svg version="1.1" width="24px" height="17px" viewBox="0 0 24.0 17.0" xmlns="http://www.w3.org/2000/svg" xmlns:xlink="http://www.w3.org/1999/xlink"><defs><clipPath id="i0"><path d="M11.9999811,0 C17.5842617,0 21.6537239,4.54450542 23.3608043,6.85323506 C23.7868509,7.42951782 24,7.7176592 24,8.16622864 C24,8.61479807 23.7868509,8.90293945 23.3608043,9.47922221 C21.6537239,11.7880022 17.5842617,16.3324573 11.9999811,16.3324573 C6.41572572,16.3324573 2.34630127,11.7880022 0.639220886,9.47934803 C0.213073629,8.90293945 0,8.61479807 0,8.16622864 C0,7.76251614 0.172599831,7.48875038 0.517781148,7.01792422 L0.639233468,6.85323506 C2.34632643,4.54449283 6.41578864,0 11.9999811,0 Z M11.9998553,4.42338538 C9.93278693,4.42338538 8.25698688,6.09916027 8.25698688,8.16622864 C8.25698688,10.2334228 9.93278693,11.9091726 11.9998553,11.9091726 C14.0669237,11.9091726 15.7426734,10.2334228 15.7426734,8.16622864 C15.7426734,6.09916027 14.0669237,4.42338538 11.9998553,4.42338538 Z"></path></clipPath></defs><g transform="translate(0.0 -4.0)"><g transform="translate(0.0 3.999999999999801)"><g clip-path="url(#i0)"><polygon points="0,0 24,0 24,16.3324573 0,16.3324573 0,0" stroke="none" fill="#00D8BE"></polygon></g></g></g></svg>