<?xml version="1.0" encoding="UTF-8"?><svg version="1.1" width="72px" height="12px" viewBox="0 0 72.0 12.0" xmlns="http://www.w3.org/2000/svg" xmlns:xlink="http://www.w3.org/1999/xlink"><defs><clipPath id="i0"><path d="M390,0 L390,844 L0,844 L0,0 L390,0 Z"></path></clipPath><clipPath id="i1"><path d="M6.65430352,0.370278989 L8.1327643,2.82969958 C8.23938436,3.00706248 8.41332445,3.13356148 8.61474456,3.18026881 L11.408106,3.8279245 C11.9688063,3.95793737 12.1897865,4.6386654 11.8124463,5.07380757 L9.93288526,7.24146955 C9.79728519,7.39782136 9.73086515,7.60246624 9.74874516,7.80867284 L9.99666529,10.6684153 C10.0464053,11.2424661 9.46800501,11.6631684 8.93802473,11.4384014 L6.29790333,10.318651 C6.10746323,10.2379223 5.89251912,10.2379223 5.70212102,10.318651 L3.06198162,11.4384014 C2.53200134,11.6631684 1.95357103,11.2424661 2.00334106,10.6684153 L2.25124919,7.80867284 C2.2691292,7.60246624 2.20269716,7.39782136 2.06715109,7.24146955 L0.187543893,5.07380757 C-0.189769307,4.6386654 0.0311701298,3.95793737 0.591909307,3.8279245 L3.38526179,3.18026881 C3.58671189,3.13356148 3.76062799,3.00706248 3.86724804,2.82969958 L5.34572683,0.370278989 C5.64251698,-0.123425729 6.35748336,-0.12342693 6.65430352,0.370278989 Z"></path></clipPath><linearGradient id="i2" x1="12px" y1="11.5px" x2="1.0658141e-13px" y2="-2.11941575e-13px" gradientUnits="userSpaceOnUse"><stop stop-color="#FFC600" offset="0%"></stop><stop stop-color="#FFD875" offset="100%"></stop></linearGradient></defs><g transform="translate(-102.0 -594.0)"><g clip-path="url(#i0)"><g transform="translate(20.0 524.0)"><g transform="translate(0.0 52.0)"><g transform="translate(82.0 18.0)"><g clip-path="url(#i1)"><polygon points="2.77555756e-17,0 12,0 12,11.5 2.77555756e-17,11.5 2.77555756e-17,0" stroke="none" fill="url(#i2)"></polygon></g><g transform="translate(15.0 0.0)"><g clip-path="url(#i1)"><polygon points="2.77555756e-17,0 12,0 12,11.5 2.77555756e-17,11.5 2.77555756e-17,0" stroke="none" fill="url(#i2)"></polygon></g></g><g transform="translate(30.0 0.0)"><g clip-path="url(#i1)"><polygon points="2.77555756e-17,0 12,0 12,11.5 2.77555756e-17,11.5 2.77555756e-17,0" stroke="none" fill="url(#i2)"></polygon></g></g><g transform="translate(45.0 0.0)"><g clip-path="url(#i1)"><polygon points="2.77555756e-17,0 12,0 12,11.5 2.77555756e-17,11.5 2.77555756e-17,0" stroke="none" fill="url(#i2)"></polygon></g></g><g transform="translate(60.0 0.0)"><g clip-path="url(#i1)"><polygon points="2.77555756e-17,0 12,0 12,11.5 2.77555756e-17,11.5 2.77555756e-17,0" stroke="none" fill="url(#i2)"></polygon></g></g></g></g></g></g></g></svg>