<?xml version="1.0" encoding="UTF-8"?><svg version="1.1" width="20px" height="22px" viewBox="0 0 20.0 22.0" xmlns="http://www.w3.org/2000/svg" xmlns:xlink="http://www.w3.org/1999/xlink"><defs><clipPath id="i0"><path d="M9.82096019,0 C11.6631869,0 12.751241,1.02243559 13.109268,2.9865366 C13.2177738,3.56416582 14.0149246,3.97972825 14.6457239,3.75832035 C16.6008551,2.9788933 17.9018769,3.41829226 18.9055484,5.11878029 C19.903568,6.80969255 19.6687333,8.06030922 18.0620554,9.39349631 C17.5265951,9.85426375 17.5265951,10.6457362 18.0518197,11.0978538 C19.6687333,12.4396908 19.903568,13.6903074 18.9055484,15.3812197 C17.9152278,17.0590877 16.6390853,17.5188172 14.6744074,16.847441 C14.0052119,16.6118524 13.2238429,17.0385846 13.1112862,17.6922507 C12.7658267,19.698826 11.7314086,20.5 9.72276019,20.5 C7.75910706,20.5 6.68964896,19.6420868 6.33428238,17.6922402 C6.22175659,17.0385873 5.44038521,16.6118527 4.76465714,16.8497115 C2.80648539,17.5188147 1.53032595,17.059089 0.552923128,15.4023249 L0.448345632,15.2294769 C-0.409921992,13.7351076 -0.0200976696,12.336503 1.48166954,11.1065256 C1.98126461,10.6765815 1.94457766,9.91293212 1.35108085,9.45884196 C-0.144962374,8.01044911 -0.34259867,6.7803835 0.651053128,5.09767506 C1.61972692,3.57371056 2.94645325,3.16501622 4.86932707,3.74756048 L4.97855632,3.77886633 C5.56637323,3.91031998 6.22557842,3.48131529 6.34241917,2.86221405 L6.39470353,2.64780611 C6.8834513,0.760068294 7.86908348,0 9.82096019,0 Z M9.75286019,6.5 C7.68176197,6.5 6.00286019,8.1789211 6.00286019,10.25 C6.00286019,12.3211136 7.68174663,14 9.75286019,14 C11.8239738,14 13.5028602,12.3211136 13.5028602,10.25 C13.5028602,8.1789211 11.8239584,6.5 9.75286019,6.5 Z"></path></clipPath></defs><g transform="translate(-2.0 -1.0)"><g transform="translate(2.2471390880928936 1.75)"><g clip-path="url(#i0)"><polygon points="-2.22044605e-16,0 19.5025708,0 19.5025708,20.5 -2.22044605e-16,20.5 -2.22044605e-16,0" stroke="none" fill="#FFFFFF"></polygon></g></g></g></svg>