<?xml version="1.0" encoding="UTF-8"?><svg version="1.1" width="20px" height="22px" viewBox="0 0 20.0 22.0" xmlns="http://www.w3.org/2000/svg" xmlns:xlink="http://www.w3.org/1999/xlink"><g transform="translate(-2.0 -1.0)"><g transform="translate(2.999999999999961 2.5)"><g transform="translate(5.9999992807473035 6.5)"><path d="M3,6 C4.6569,6 6,4.6569 6,3 C6,1.34315 4.6569,0 3,0 C1.3431,0 0,1.34315 0,3 C0,4.6569 1.3431,6 3,6 Z" stroke="#FFFFFF" stroke-width="1.5" fill="none" stroke-linecap="round" stroke-linejoin="round"></path></g><path d="M17.5067993,14.25 C16.7217993,15.58 15.8386993,15.96 14.1705993,15.39 C13.0911993,15.01 11.8155993,15.675 11.6192993,16.815 C11.3248993,18.525 10.5398993,19 8.96989928,19 C7.39989928,19 6.61491928,18.43 6.32054928,16.815 C6.12429928,15.675 4.84866928,15.01 3.76928928,15.39 C2.10114928,15.96 1.21802928,15.58 0.433019281,14.25 C-0.351980719,13.015 -0.0576007193,11.97 1.21802928,10.925 C2.10114928,10.165 2.00302928,8.835 1.11989928,8.17 C-0.155730719,6.935 -0.253850719,6.08 0.531149281,4.75 C1.31614928,3.515 2.29740928,3.23 3.86740928,3.705 C4.94678928,4.085 6.12429928,3.325 6.32054928,2.28 C6.71304928,0.57 7.39989928,0 9.06809928,0 C10.5398993,0 11.3248993,0.76 11.6192993,2.375 C11.8155993,3.42 13.0911993,4.085 14.1705993,3.705 C15.8386993,3.04 16.7217993,3.42 17.5067993,4.75 C18.2917993,6.08 18.1936993,6.935 16.8199993,8.075 C15.9367993,8.835 15.9367993,10.165 16.8199993,10.925 C18.1936993,12.065 18.2917993,12.92 17.5067993,14.25 Z" stroke="#FFFFFF" stroke-width="1.5" fill="none" stroke-linecap="round" stroke-linejoin="round"></path></g></g></svg>