<?xml version="1.0" encoding="UTF-8"?><svg version="1.1" width="22px" height="20px" viewBox="0 0 22.0 20.0" xmlns="http://www.w3.org/2000/svg" xmlns:xlink="http://www.w3.org/1999/xlink"><defs><clipPath id="i0"><path d="M0.5,0 C0.77614,0 1,0.2239 1,0.5 C1,0.7761 0.77614,1 0.5,1 C0.22386,1 0,0.7761 0,0.5 C0,0.2239 0.22386,0 0.5,0 Z"></path></clipPath><clipPath id="i1"><path d="M0.5,0 C0.7761,0 1,0.2239 1,0.5 C1,0.7761 0.7761,1 0.5,1 C0.2239,1 0,0.7761 0,0.5 C0,0.2239 0.2239,0 0.5,0 Z"></path></clipPath></defs><g transform="translate(0.0 -2.0)"><g transform="translate(1.0000000000000675 3.0000000000000036)"><path d="M8.91833399,2.85055 C13.9348899,2.85055 10.614223,2.85055 15.0834456,2.85055 C19.552557,2.85055 20.7770015,2.85055 19.552557,8.3244 C18.3111125,13.8741 17.0918901,14.3097 12.8487787,13.8741 C6.064856,13.1775 6.49117826,12.9843 5.02780037,7.2145 C3.19800024,0 4.41080033,0 0,0" stroke="#FFFFFF" stroke-width="1.5" fill="none" stroke-linecap="round" stroke-linejoin="round"></path><g transform="translate(7.0 17.0)"><g clip-path="url(#i0)"><polygon points="0,0 1,0 1,1 0,1 0,0" stroke="none" fill="#FFFFFF"></polygon></g><path d="M0.5,1 C0.77614,1 1,0.7761 1,0.5 C1,0.2239 0.77614,0 0.5,0 C0.22386,0 0,0.2239 0,0.5 C0,0.7761 0.22386,1 0.5,1 Z" stroke="#FFFFFF" stroke-width="1.6" fill="none" stroke-linecap="round" stroke-linejoin="round"></path></g><g transform="translate(15.0 17.0)"><g clip-path="url(#i1)"><polygon points="0,0 1,0 1,1 0,1 0,0" stroke="none" fill="#FFFFFF"></polygon></g><path d="M0.5,1 C0.7761,1 1,0.7761 1,0.5 C1,0.2239 0.7761,0 0.5,0 C0.2239,0 0,0.2239 0,0.5 C0,0.7761 0.2239,1 0.5,1 Z" stroke="#FFFFFF" stroke-width="1.6" fill="none" stroke-linecap="round" stroke-linejoin="round"></path></g></g></g></svg>