<?xml version="1.0" encoding="UTF-8"?><svg version="1.1" width="20px" height="20px" viewBox="0 0 20.0 20.0" xmlns="http://www.w3.org/2000/svg" xmlns:xlink="http://www.w3.org/1999/xlink"><g transform="translate(-2.0 -2.0)"><g transform="translate(3.0 3.0)"><path d="M18,12.3968803 C18,16.9328803 17,17.4328803 9,17.4328803 C1.00003,17.4328803 0,16.4328803 0,12.3968803 C0,10.2555803 0,10.7514803 0,8.87728029 C0,7.00298029 0.57474,5.93288029 3.94411,3.22235029 C5.35369,2.08840029 6.57248,1.17162029 7.4601,0.523980287 C8.3925,-0.156359713 9.6264,-0.182649713 10.5609,0.494750287 C11.3853,1.09227029 12.544,1.97476029 14.0559,3.22235029 C17.5,6.06446029 18,6.93288029 18,8.87728029 C18,12.6373803 18,9.25558029 18,12.3968803 Z" stroke="#FFFFFF" stroke-width="1.5" fill="none" stroke-linecap="round" stroke-linejoin="round"></path><g transform="translate(6.0 11.43288028715688)"><path d="M0,3 C0.375,1.5 0,0 3,0 C6,0 5.625,1.5 6,3" stroke="#FFFFFF" stroke-width="1.5" fill="none" stroke-linecap="round" stroke-linejoin="round"></path></g></g></g></svg>