<?xml version="1.0" encoding="UTF-8"?><svg version="1.1" width="20px" height="20px" viewBox="0 0 20.0 20.0" xmlns="http://www.w3.org/2000/svg" xmlns:xlink="http://www.w3.org/1999/xlink"><defs><clipPath id="i0"><path d="M11.7510778,0.637524176 C12.7490149,1.36082284 13.9250249,2.27310806 15.2832599,3.39389677 C18.7787659,6.27842759 19.5,7.33710365 19.5,9.62729675 L19.4990803,13.3672863 C19.4582234,18.1546102 18.0304053,18.9163072 10.1095817,18.9325397 L9.38791369,18.9321615 C1.75614294,18.9005951 0.0375175216,17.8400037 0.000731942765,13.3311736 L0,9.62729675 C0,7.3688225 0.852330693,6.10036936 4.2240014,3.38798853 L4.75631363,2.96270994 C5.81349789,2.1239388 6.82480672,1.35634051 7.76802364,0.668134972 C8.96771937,-0.207241467 10.5575979,-0.227605058 11.7510778,0.637524176 Z M9.75,11.2828967 C7.18945398,11.2828967 6.35755788,12.1571162 6.01689835,14.2276182 L5.99329376,14.3702387 C5.96420188,14.5446215 5.94393719,14.6594129 5.92414248,14.7568496 L5.87687175,14.9646147 C5.7563179,15.4468301 6.04950252,15.9354711 6.53171794,16.056025 C7.01393335,16.1765789 7.5025744,15.8833942 7.62312825,15.4011788 C7.65512268,15.2732011 7.67845225,15.1692176 7.70335477,15.0390533 L7.81697484,14.3782674 C8.00026373,13.3294921 8.1898034,13.1140616 9.40815804,13.0863049 L9.75,13.0828967 C11.3382733,13.0828967 11.4982142,13.2509747 11.706981,14.5198432 L11.756832,14.8178994 C11.7786082,14.944566 11.7966202,15.0423942 11.8151872,15.1325516 L11.8768717,15.4011788 C11.9974256,15.8833942 12.4860666,16.1765789 12.9682821,16.056025 C13.4504975,15.9354711 13.7436821,15.4468301 13.6231283,14.9646147 C13.5993376,14.8694519 13.5813448,14.788612 13.5607928,14.6798581 L13.4485595,14.0309707 C13.0869726,12.1016246 12.2279478,11.2828967 9.75,11.2828967 Z"></path></clipPath></defs><g transform="translate(-2.0 -2.0)"><g transform="translate(2.25 2.249983540593222)"><g clip-path="url(#i0)"><polygon points="0,0 19.5,0 19.5,18.9325397 0,18.9325397 0,0" stroke="none" fill="#FFFFFF"></polygon></g></g></g></svg>