<?xml version="1.0" encoding="UTF-8"?><svg version="1.1" width="24px" height="24px" viewBox="0 0 24.0 24.0" xmlns="http://www.w3.org/2000/svg" xmlns:xlink="http://www.w3.org/1999/xlink"><defs><clipPath id="i0"><path d="M390,0 L390,844 L0,844 L0,0 L390,0 Z"></path></clipPath><clipPath id="i1"><path d="M12,0 C18.627417,0 24,5.372583 24,12 C24,18.627417 18.627417,24 12,24 C5.372583,24 0,18.627417 0,12 C0,5.372583 5.372583,0 12,0 Z"></path></clipPath></defs><g transform="translate(-346.0 -124.0)"><g clip-path="url(#i0)"><g transform="translate(20.0 112.0)"><g transform="translate(326.0 12.0)"><g clip-path="url(#i1)"><path d="M12,24 C18.627417,24 24,18.627417 24,12 C24,5.372583 18.627417,0 12,0 C5.372583,0 0,5.372583 0,12 C0,18.627417 5.372583,24 12,24 Z" stroke="#00D8BE" stroke-width="2" fill="none" stroke-miterlimit="5"></path></g><g transform="translate(17.0 7.0) scale(-1.0 1.0)"><path d="M3,0 L0,3 L9,3" stroke="#00D8BE" stroke-width="1.6" fill="none" stroke-linecap="round" stroke-linejoin="round"></path></g><g transform="translate(7.0 17.0) scale(1.0 -1.0)"><path d="M3,0 L0,3 L9,3" stroke="#00D8BE" stroke-width="1.6" fill="none" stroke-linecap="round" stroke-linejoin="round"></path></g></g></g></g></g></svg>